<svg width="292" height="283" viewBox="0 0 292 283" fill="none" xmlns="http://www.w3.org/2000/svg">
<path d="M86.5247 0.000976562H4.15234V119.393H86.5247V0.000976562Z" fill="#E0E0E0"/>
<path d="M82.4021 0.000976562H0.0297852V119.393H82.4021V0.000976562Z" fill="#F5F5F5"/>
<path d="M72.1642 12.9316H10.2612V106.464H72.1642V12.9316Z" fill="white"/>
<path d="M72.1641 106.463C72.1641 106.463 72.1641 106.3 72.1641 106.002C72.1641 105.704 72.1641 105.256 72.1641 104.68C72.1641 103.5 72.1641 101.785 72.1641 99.5473C72.1641 95.0656 72.1641 88.5295 72.1098 80.2781C72.1098 63.7887 72.0488 40.431 72.0081 12.9306L72.2115 13.134H10.3153L10.5391 12.9103C10.5391 48.1672 10.5391 80.712 10.4984 106.477L10.3153 106.294L55.3764 106.389L67.8247 106.436H71.0928H72.2183C72.2183 106.436 71.859 106.436 71.1267 106.436H67.8926L55.4848 106.477L10.3153 106.572H10.1119V106.395C10.1119 80.6781 10.1119 48.1468 10.0645 12.8628V12.6865H10.295H72.1912H72.4014V12.8899C72.3607 40.4446 72.32 63.8497 72.2997 80.373C72.2997 88.6041 72.2522 95.1266 72.2454 99.5948C72.2454 101.812 72.2454 103.521 72.2454 104.687C72.2454 105.249 72.2454 105.683 72.2454 105.988C72.2454 106.294 72.1641 106.463 72.1641 106.463Z" fill="#E0E0E0"/>
<path d="M82.6602 0.000976562C82.2334 0.752585 81.741 1.46501 81.1889 2.12995C80.2329 3.4114 78.8768 5.15391 77.3242 7.03202C75.7715 8.91012 74.3273 10.5848 73.2561 11.7781C72.7102 12.4511 72.1017 13.0709 71.439 13.6291C71.9057 12.9084 72.4318 12.228 73.012 11.5951L76.9784 6.78115L80.9448 1.96723C81.4561 1.26139 82.0302 0.603289 82.6602 0.000976562Z" fill="#E0E0E0"/>
<path d="M72.4897 106.159C75.5676 111.053 79.1886 115.584 83.2838 119.665L72.4897 106.159Z" fill="white"/>
<path d="M83.277 119.665C82.5934 119.16 81.964 118.585 81.3989 117.95C79.9626 116.493 78.6047 114.961 77.3308 113.36C76.0525 111.76 74.8555 110.096 73.7441 108.376C73.2491 107.683 72.8286 106.94 72.4897 106.159C73.0438 106.8 73.5514 107.48 74.0085 108.193C74.9171 109.461 76.1917 111.21 77.6834 113.075C79.175 114.94 80.5921 116.56 81.6362 117.726C82.2331 118.329 82.7817 118.977 83.277 119.665Z" fill="#E0E0E0"/>
<path d="M0.0166016 119.299L10.7903 105.989L0.0166016 119.299Z" fill="white"/>
<path d="M10.79 105.989C10.885 106.064 8.55259 109.108 5.56931 112.769C2.58604 116.43 0.0977122 119.366 0.00278975 119.285C-0.0921327 119.204 2.24703 116.166 5.22352 112.505C8.20002 108.843 10.7087 105.908 10.79 105.989Z" fill="#E0E0E0"/>
<path d="M0.0299367 0.00173309C0.124859 -0.079629 2.4708 2.7138 5.26423 6.25983C8.05766 9.80586 10.2477 12.7213 10.1527 12.7959C10.0578 12.8705 7.71187 10.0839 4.91166 6.53782C2.11145 2.99179 -0.0582055 0.076315 0.0299367 0.00173309Z" fill="#E0E0E0"/>
<path d="M50.9558 59.8166C50.9571 60.8239 50.6596 61.8091 50.1009 62.6473C49.5423 63.4856 48.7475 64.1393 47.8172 64.5257C46.8869 64.9122 45.8628 65.014 44.8747 64.8183C43.8865 64.6225 42.9786 64.1381 42.2658 63.4263C41.553 62.7144 41.0673 61.8072 40.8703 60.8192C40.6733 59.8313 40.7737 58.8072 41.1589 57.8763C41.5441 56.9455 42.1968 56.1499 43.0343 55.5901C43.8718 55.0303 44.8565 54.7314 45.8639 54.7314C47.2132 54.7314 48.5073 55.267 49.462 56.2204C50.4167 57.1739 50.954 58.4673 50.9558 59.8166Z" fill="#E0E0E0"/>
<path d="M53.6884 41.8965C53.6884 42.6487 53.4653 43.3841 53.0474 44.0097C52.6294 44.6352 52.0354 45.1227 51.3403 45.4106C50.6453 45.6985 49.8805 45.7738 49.1427 45.627C48.4048 45.4803 47.7271 45.118 47.1951 44.5861C46.6632 44.0541 46.3009 43.3764 46.1541 42.6385C46.0074 41.9007 46.0827 41.1359 46.3706 40.4408C46.6585 39.7458 47.146 39.1518 47.7715 38.7338C48.397 38.3159 49.1324 38.0928 49.8847 38.0928C50.8935 38.0928 51.861 38.4935 52.5743 39.2068C53.2877 39.9202 53.6884 40.8877 53.6884 41.8965Z" fill="#E0E0E0"/>
<path d="M38.8807 47.7472C38.8888 48.2933 38.7342 48.8295 38.4367 49.2875C38.1391 49.7455 37.7121 50.1047 37.2099 50.3193C36.7076 50.5339 36.1529 50.5942 35.6163 50.4926C35.0796 50.3911 34.5854 50.1321 34.1963 49.7488C33.8072 49.3655 33.541 48.8751 33.4314 48.3401C33.3219 47.805 33.374 47.2495 33.5811 46.7441C33.7882 46.2387 34.1409 45.8064 34.5945 45.5021C35.048 45.1977 35.5818 45.0352 36.1279 45.0352C36.851 45.0351 37.5451 45.3195 38.0602 45.827C38.5753 46.3345 38.87 47.0242 38.8807 47.7472Z" fill="#E0E0E0"/>
<path d="M54.0543 76.6044C53.8151 76.8428 53.5107 77.0049 53.1794 77.0704C52.8481 77.1358 52.5049 77.1016 52.193 76.9721C51.8812 76.8426 51.6147 76.6236 51.4272 76.3428C51.2397 76.0619 51.1396 75.7318 51.1396 75.3941C51.1396 75.0565 51.2397 74.7264 51.4272 74.4455C51.6147 74.1647 51.8812 73.9457 52.193 73.8162C52.5049 73.6867 52.8481 73.6525 53.1794 73.7179C53.5107 73.7834 53.8151 73.9455 54.0543 74.1839C54.2136 74.3426 54.34 74.5312 54.4262 74.7389C54.5125 74.9466 54.5569 75.1693 54.5569 75.3941C54.5569 75.619 54.5125 75.8417 54.4262 76.0494C54.34 76.2571 54.2136 76.4457 54.0543 76.6044Z" fill="#E0E0E0"/>
<path d="M30.8732 63.0574C30.8732 63.6022 30.7116 64.1347 30.4088 64.5875C30.106 65.0403 29.6757 65.3932 29.1723 65.6013C28.6689 65.8095 28.1151 65.8636 27.5809 65.7568C27.0467 65.65 26.5562 65.3872 26.1715 65.0015C25.7868 64.6159 25.5252 64.1247 25.4197 63.5903C25.3143 63.0559 25.3698 62.5022 25.5792 61.9993C25.7886 61.4964 26.1424 61.067 26.596 60.7653C27.0496 60.4637 27.5825 60.3034 28.1272 60.3047C28.4884 60.3047 28.846 60.376 29.1796 60.5144C29.5132 60.6528 29.8162 60.8557 30.0713 61.1114C30.3264 61.3671 30.5285 61.6706 30.6661 62.0045C30.8037 62.3385 30.8741 62.6963 30.8732 63.0574Z" fill="#E0E0E0"/>
<path d="M45.8638 59.8167C46.0401 59.7421 47.7352 63.0169 49.6675 67.1393C51.5999 71.2616 53.0169 74.6653 52.8474 74.7466C52.6779 74.828 50.9761 71.5464 49.0437 67.424C47.1114 63.3017 45.6943 59.898 45.8638 59.8167Z" fill="#E0E0E0"/>
<path d="M45.4571 60.332C45.4571 60.5218 41.7687 61.227 37.165 61.9117C32.5613 62.5965 28.7983 62.9898 28.7711 62.8067C28.744 62.6237 32.4867 61.9117 37.0633 61.2337C41.6399 60.5557 45.43 60.1489 45.4571 60.332Z" fill="#E0E0E0"/>
<path d="M45.1046 57.8907C44.9893 58.0263 42.6298 56.1007 40.2567 53.1988C37.8837 50.2969 36.4395 47.6187 36.5887 47.5306C36.7378 47.4425 38.4329 49.924 40.7856 52.7649C43.1383 55.6058 45.2402 57.7415 45.1046 57.8907Z" fill="#E0E0E0"/>
<path d="M49.8845 41.8962V42.025L49.7964 42.5132L49.4031 44.3099C49.0573 45.8151 48.5488 47.8967 47.9657 50.1884C46.7928 54.765 45.8096 58.467 45.6334 58.4263C45.4571 58.3856 46.1283 54.6023 47.3081 50.0189C47.8912 47.7272 48.4743 45.6592 48.9421 44.1811C49.1726 43.4421 49.376 42.8251 49.5387 42.4386C49.6005 42.2813 49.6707 42.1274 49.7489 41.9776L49.8303 41.8623C49.8303 41.8623 49.8981 41.8623 49.8778 41.8623L49.8845 41.8962Z" fill="#E0E0E0"/>
<path d="M22.5601 157.227C23.5715 156.612 24.6618 156.138 25.801 155.817L26.4791 152.61L31.9032 152.515L32.6829 155.695C33.8324 155.976 34.9386 156.412 35.9713 156.99L38.6834 155.193L42.582 158.956L40.8869 161.756C41.4969 162.769 41.9689 163.859 42.2904 164.997L45.4975 165.675L45.5924 171.099L42.4125 171.879C42.1287 173.028 41.6932 174.133 41.1175 175.167L42.9142 177.879L39.1512 181.778L36.351 180.076C35.3432 180.7 34.2551 181.183 33.1169 181.513L32.4388 184.72L27.0147 184.815L26.235 181.635C25.1023 181.342 24.0128 180.902 22.9941 180.327L20.282 182.124L16.3834 178.354L18.0784 175.56C17.4676 174.547 16.9934 173.457 16.6682 172.32L13.4611 171.642L13.3662 166.217L16.5529 165.438C16.8332 164.289 17.2664 163.183 17.8411 162.149L16.0512 159.437L19.8142 155.539L22.6144 157.24L22.5601 157.227ZM25.4485 164.441C24.6502 165.268 24.1151 166.312 23.9106 167.443C23.7061 168.574 23.8415 169.74 24.2997 170.794C24.7578 171.848 25.5182 172.742 26.4846 173.364C27.451 173.986 28.5801 174.307 29.7291 174.287C30.8781 174.267 31.9953 173.907 32.9396 173.252C33.884 172.597 34.6129 171.677 35.0343 170.608C35.4557 169.539 35.5506 168.369 35.3071 167.246C35.0635 166.123 34.4924 165.097 33.666 164.299C32.5567 163.229 31.0684 162.644 29.5278 162.67C27.9872 162.697 26.5201 163.334 25.4485 164.441Z" fill="#F5F5F5"/>
<path d="M25.4486 164.442C25.7544 164.069 26.1184 163.749 26.5266 163.492C27.6502 162.763 28.9924 162.446 30.3235 162.597C31.312 162.704 32.2575 163.059 33.072 163.629C33.8864 164.199 34.5433 164.966 34.9815 165.859C35.2413 166.373 35.4197 166.924 35.5104 167.493C35.6207 168.083 35.6322 168.688 35.5443 169.283C35.3787 170.544 34.8123 171.719 33.9286 172.635C33.0448 173.55 31.8904 174.158 30.6354 174.368C30.0428 174.466 29.4381 174.466 28.8454 174.368C28.2756 174.297 27.7199 174.139 27.1979 173.9C26.223 173.452 25.3868 172.749 24.7773 171.866C24.1304 170.941 23.7634 169.85 23.7201 168.722C23.6769 167.594 23.9591 166.478 24.5332 165.506C24.7739 165.085 25.0833 164.707 25.4486 164.387C25.1601 164.765 24.893 165.159 24.6485 165.567C24.0121 166.697 23.7733 168.008 23.9705 169.289C24.1188 170.227 24.501 171.113 25.0816 171.864C25.6622 172.615 26.4226 173.208 27.2928 173.588C27.7897 173.813 28.3177 173.961 28.859 174.029C29.4202 174.107 29.9904 174.093 30.5473 173.988C31.7273 173.794 32.8147 173.228 33.6512 172.373C34.4877 171.518 35.0297 170.419 35.1985 169.235C35.2902 168.676 35.2902 168.106 35.1985 167.547C35.1148 167.008 34.9502 166.484 34.7103 165.994C34.2645 165.084 33.5862 164.307 32.744 163.743C32.0107 163.251 31.1725 162.938 30.2964 162.828C29.0109 162.67 27.7094 162.942 26.5944 163.601C25.8147 164.075 25.4757 164.475 25.4486 164.442Z" fill="#F5F5F5"/>
<path d="M22.5601 157.227L22.3771 157.125L21.8414 156.82L19.7328 155.573H19.7938L16.0512 159.491V159.383L17.8547 162.095L17.8886 162.143V162.197C17.3183 163.224 16.8895 164.323 16.6139 165.465V165.526H16.5461L13.3662 166.312L13.4611 166.197C13.495 167.899 13.5289 169.709 13.5696 171.621L13.4611 171.492L16.6682 172.17H16.7495V172.252C17.0717 173.378 17.5413 174.456 18.1462 175.459L18.1937 175.533L18.1462 175.608L16.4512 178.408V178.225L20.3566 181.981H20.16L22.872 180.185L22.9941 180.157L23.0754 180.198C24.097 180.766 25.189 181.197 26.3231 181.48H26.4181V181.575C26.6621 182.571 26.9266 183.656 27.1978 184.754L27.0351 184.632L32.4592 184.531L32.3033 184.666C32.5134 183.649 32.7372 182.558 32.9813 181.459V181.358H33.0762C34.2012 181.042 35.2779 180.574 36.2764 179.968L36.3646 179.92L36.4527 179.968L39.2665 181.649H39.0563L42.8261 177.75V177.954L41.0293 175.242L40.9751 175.16L41.0226 175.072C41.5919 174.051 42.0228 172.959 42.304 171.825V171.73H42.3989L45.5856 170.95L45.4636 171.106C45.4274 169.253 45.398 167.445 45.3754 165.682L45.4975 165.831L42.2904 165.153H42.2023V165.065C41.8676 163.935 41.3842 162.854 40.7649 161.851L40.7242 161.776L40.7649 161.702C41.3548 160.746 41.9175 159.817 42.4735 158.908V159.078L38.5885 155.288H38.7444L36.0323 157.078H35.9713L35.8764 157.105C34.852 156.531 33.7551 156.098 32.6151 155.817H32.5541V155.756C32.2693 154.596 32.0185 153.552 31.7812 152.569L31.8761 152.644L26.452 152.718L26.5265 152.657C26.2486 153.939 26.0248 154.989 25.8485 155.857V155.891C24.9938 156.133 24.1631 156.453 23.367 156.847L22.7839 157.152L22.594 157.254L22.7703 157.125C22.8991 157.051 23.0822 156.935 23.3466 156.8C24.119 156.365 24.9348 156.013 25.7807 155.749V155.79L26.4587 152.582V152.521H26.5198L31.9439 152.399H32.0185V152.474C32.2626 153.457 32.5202 154.508 32.8118 155.654L32.7304 155.573C33.8889 155.86 35.0055 156.295 36.0527 156.868H35.8764L38.5885 155.064L38.6698 155.01L38.7444 155.084L42.6498 158.841L42.7312 158.915L42.6701 159.01C42.1209 159.919 41.5582 160.848 40.9819 161.81V161.661C41.6001 162.685 42.0811 163.786 42.4125 164.936L42.2972 164.834L45.5042 165.512H45.6263V165.634C45.6579 167.397 45.6918 169.205 45.728 171.058V171.187H45.6059L42.4599 172.021L42.5752 171.899C42.303 173.061 41.8742 174.181 41.3005 175.228V175.059L43.0905 177.771L43.1651 177.879L43.0769 177.974L39.2665 181.907L39.1716 182.002L39.0563 181.934L36.2561 180.232H36.4256C35.4029 180.852 34.3014 181.331 33.1508 181.656L33.266 181.534C33.0355 182.632 32.8118 183.724 32.588 184.741V184.87H32.4863L27.0622 184.965H26.9334V184.843C26.6621 183.744 26.3977 182.653 26.1536 181.656L26.2757 181.778C25.1124 181.489 23.9929 181.047 22.9466 180.463H23.1093L20.3973 182.259L20.2956 182.327L20.2074 182.239L16.2139 178.462L16.1325 178.381L16.1936 178.279C16.7834 177.303 17.3665 176.347 17.8954 175.486V175.635C17.2765 174.61 16.7998 173.506 16.4783 172.353L16.58 172.448L13.373 171.77H13.2713V171.662C13.2713 169.763 13.2171 167.953 13.1899 166.238V166.143H13.2781L16.4648 165.37L16.3834 165.451C16.6725 164.295 17.1148 163.182 17.6988 162.143V162.244L15.9156 159.498V159.444L15.963 159.397L19.7464 155.518V155.484H19.787L21.8211 156.773L22.35 157.105L22.5601 157.227Z" fill="#F5F5F5"/>
<path d="M246.625 104.973C247.317 104.554 248.063 104.23 248.842 104.01L249.296 101.82L252.991 101.759L253.527 103.928C254.311 104.122 255.065 104.419 255.771 104.81L257.643 103.589L260.3 106.159L259.141 108.064C259.56 108.757 259.884 109.503 260.104 110.281L262.294 110.736L262.362 114.438L260.185 114.967C259.996 115.751 259.699 116.507 259.304 117.211L260.531 119.082L257.961 121.747L256.049 120.587C255.358 121.003 254.615 121.324 253.839 121.543L253.378 123.733L249.683 123.801L249.147 121.631C248.363 121.435 247.609 121.136 246.903 120.743L245.032 121.97L242.374 119.401L243.533 117.489C243.113 116.799 242.789 116.056 242.57 115.278L240.38 114.824L240.312 111.122L242.489 110.587C242.681 109.802 242.978 109.048 243.37 108.342L242.143 106.478L244.706 103.813L246.618 104.973H246.625ZM248.598 109.902C248.054 110.467 247.69 111.18 247.552 111.952C247.413 112.724 247.507 113.519 247.82 114.238C248.134 114.957 248.653 115.567 249.313 115.99C249.973 116.414 250.743 116.632 251.527 116.618C252.311 116.604 253.074 116.358 253.718 115.91C254.362 115.463 254.859 114.835 255.146 114.105C255.434 113.376 255.498 112.577 255.332 111.811C255.165 111.045 254.776 110.345 254.212 109.8C253.454 109.07 252.436 108.67 251.384 108.689C250.331 108.708 249.329 109.145 248.598 109.902Z" fill="#F5F5F5"/>
<path d="M248.598 109.901C248.806 109.637 249.056 109.408 249.337 109.223C250.104 108.728 251.019 108.513 251.927 108.613C252.555 108.679 253.159 108.893 253.69 109.237C254.298 109.637 254.789 110.192 255.114 110.844C255.286 111.195 255.407 111.57 255.473 111.956C255.537 112.36 255.537 112.772 255.473 113.176C255.355 114.036 254.971 114.837 254.374 115.468C253.769 116.091 252.981 116.505 252.123 116.647C251.719 116.715 251.307 116.715 250.903 116.647C250.513 116.602 250.133 116.495 249.778 116.329C249.115 116.032 248.544 115.564 248.123 114.973C247.76 114.457 247.528 113.862 247.445 113.237C247.312 112.334 247.494 111.412 247.96 110.627C248.125 110.341 248.336 110.085 248.584 109.867C248.584 109.867 248.347 110.125 248.042 110.674C247.616 111.447 247.461 112.339 247.601 113.21C247.695 113.807 247.928 114.373 248.279 114.864C248.686 115.423 249.233 115.865 249.866 116.146C250.205 116.301 250.566 116.402 250.937 116.444C251.319 116.505 251.708 116.505 252.09 116.444C252.898 116.302 253.64 115.908 254.212 115.319C254.781 114.729 255.146 113.974 255.256 113.162C255.32 112.779 255.32 112.387 255.256 112.003C255.199 111.636 255.087 111.279 254.924 110.945C254.616 110.321 254.148 109.79 253.568 109.406C252.948 108.996 252.226 108.769 251.483 108.752C250.74 108.735 250.008 108.929 249.371 109.311C249.103 109.495 248.845 109.692 248.598 109.901Z" fill="#F5F5F5"/>
<path d="M246.625 104.972L246.503 104.904L246.137 104.694L244.706 103.846H244.747L242.191 106.525V106.45L243.425 108.315V108.348C243.036 109.05 242.742 109.8 242.55 110.579V110.627H242.503L240.333 111.169L240.394 111.088C240.394 112.254 240.441 113.488 240.469 114.783L240.401 114.701L242.591 115.149H242.645V115.203C242.867 115.972 243.188 116.708 243.601 117.393L243.635 117.441L243.601 117.495L242.448 119.407V119.278L245.113 121.848H244.984L246.849 120.621L246.903 120.587H246.964C247.661 120.976 248.406 121.27 249.181 121.461H249.249V121.529C249.418 122.207 249.601 122.953 249.785 123.699L249.669 123.617L253.371 123.55L253.263 123.638L253.717 121.448V121.38H253.785C254.552 121.164 255.287 120.844 255.968 120.431L256.029 120.397L256.09 120.431L257.995 121.59H257.86L260.429 118.926V119.068L259.202 117.197L259.168 117.142L259.202 117.081C259.591 116.384 259.885 115.639 260.077 114.864V114.803H260.138L262.314 114.274L262.233 114.383C262.233 113.122 262.213 111.888 262.172 110.681L262.253 110.783L260.063 110.328H260.002V110.267C259.782 109.499 259.463 108.763 259.053 108.077L259.019 108.023L259.053 107.976C259.453 107.298 259.84 106.687 260.212 106.064V106.186L257.555 103.609H257.663L255.792 104.83H255.744H255.704C255.005 104.437 254.257 104.14 253.48 103.948H253.439V103.907C253.249 103.114 253.08 102.402 252.917 101.731L252.985 101.785L249.283 101.833L249.33 101.792C249.14 102.667 248.991 103.379 248.862 103.975C248.278 104.149 247.711 104.376 247.167 104.653L246.74 104.897L246.605 104.965C246.648 104.939 246.693 104.916 246.74 104.897C246.828 104.843 246.957 104.762 247.134 104.667C247.672 104.385 248.238 104.157 248.822 103.989C248.944 103.392 249.086 102.673 249.262 101.799V101.758H249.303L252.998 101.677H253.053V101.724L253.595 103.894L253.541 103.84C254.331 104.035 255.093 104.334 255.805 104.728H255.717L257.589 103.541L257.643 103.501L257.697 103.548L260.362 106.118L260.416 106.165L260.375 106.233L259.223 108.145V108.043C259.645 108.743 259.973 109.495 260.199 110.281L260.118 110.206L262.308 110.66H262.389V110.749C262.389 111.949 262.43 113.183 262.457 114.444V114.532H262.369L260.199 115.068L260.28 114.986C260.089 115.781 259.788 116.546 259.385 117.258V117.142L260.612 119.014L260.66 119.088L260.599 119.156L258.043 121.848L257.982 121.916L257.9 121.868L255.988 120.709H256.104C255.403 121.129 254.651 121.457 253.866 121.685L253.948 121.597L253.493 123.787V123.875H253.405L249.703 123.936H249.615V123.848C249.432 123.095 249.249 122.356 249.079 121.671L249.161 121.753C248.367 121.558 247.603 121.257 246.889 120.858H247.005L245.133 122.078L245.059 122.126L245.005 122.065C244.076 121.177 243.181 120.302 242.34 119.495L242.286 119.441L242.326 119.366L243.486 117.461V117.563C243.067 116.863 242.743 116.11 242.523 115.325L242.591 115.386L240.401 114.932H240.333V114.864C240.333 113.562 240.313 112.328 240.272 111.162V111.101H240.34L242.509 110.579L242.455 110.633C242.653 109.845 242.954 109.085 243.35 108.376V108.443L242.13 106.565V106.531H242.164L244.747 103.88L246.157 104.762L246.517 104.992C246.552 104.983 246.588 104.977 246.625 104.972Z" fill="#F5F5F5"/>
<path d="M228.99 50.0257C230.617 49.0432 232.368 48.2816 234.197 47.7611L235.268 42.6081L243.974 42.459L245.228 47.5645C247.073 48.0226 248.849 48.7225 250.51 49.646L254.91 46.7576L261.168 52.8055L258.456 57.3076C259.44 58.9322 260.202 60.6812 260.721 62.508L265.874 63.586L266.023 72.285L260.911 73.5393C260.458 75.3846 259.76 77.1609 258.836 78.8211L261.718 83.2214L255.67 89.4863L251.174 86.7742C249.547 87.7579 247.796 88.5195 245.967 89.0388L244.896 94.1917L236.19 94.3409L234.943 89.2354C233.098 88.7784 231.322 88.0784 229.661 87.1539L225.261 90.0422L218.996 83.9943L221.708 79.4923C220.726 77.8675 219.967 76.1184 219.45 74.2919L214.297 73.2139L214.141 64.5149L219.253 63.2606C219.706 61.4153 220.404 59.6389 221.328 57.9788L218.447 53.5785L224.494 47.3136L228.99 50.0257ZM233.634 61.6198C232.351 62.948 231.491 64.6269 231.163 66.444C230.834 68.2611 231.052 70.1348 231.788 71.8282C232.524 73.5217 233.746 74.9587 235.299 75.9577C236.852 76.9566 238.667 77.4726 240.513 77.4404C242.359 77.4081 244.154 76.8291 245.672 75.7766C247.189 74.724 248.36 73.2451 249.037 71.527C249.713 69.8089 249.865 67.9287 249.474 66.1242C249.082 64.3197 248.163 62.6719 246.835 61.3892C245.954 60.5368 244.913 59.8665 243.772 59.4167C242.631 58.9669 241.413 58.7464 240.187 58.7678C238.961 58.7892 237.751 59.0521 236.627 59.5415C235.502 60.0309 234.485 60.7371 233.634 61.6198Z" fill="#EBEBEB"/>
<path d="M233.634 61.6202C234.124 61.0188 234.71 60.5032 235.37 60.0946C237.175 58.9215 239.332 58.4111 241.472 58.6504C242.949 58.8084 244.368 59.3125 245.614 60.1217C247.05 61.0573 248.206 62.3617 248.964 63.8983C249.8 65.5996 250.114 67.5107 249.866 69.3902C249.599 71.4145 248.691 73.3 247.274 74.7704C245.857 76.2407 244.007 77.2185 241.994 77.5603C241.044 77.7283 240.074 77.7443 239.119 77.6078C238.201 77.4946 237.307 77.2383 236.468 76.8484C234.906 76.146 233.561 75.0359 232.576 73.6346C231.535 72.1482 230.944 70.3929 230.876 68.5793C230.807 66.7658 231.264 64.9709 232.19 63.4101C232.575 62.7361 233.07 62.1311 233.654 61.6202C233.194 62.2279 232.767 62.8593 232.373 63.5118C231.369 65.3335 231.004 67.4387 231.335 69.4919C231.574 70.9984 232.185 72.4213 233.114 73.6315C234.042 74.8416 235.258 75.8006 236.651 76.4213C237.45 76.7739 238.298 77.0025 239.166 77.0993C240.068 77.2226 240.983 77.2043 241.879 77.0451C243.783 76.7211 245.533 75.797 246.875 74.4077C248.217 73.0184 249.079 71.2366 249.337 69.3224C249.469 68.4221 249.455 67.5064 249.296 66.6104C249.167 65.7446 248.902 64.9047 248.51 64.122C247.848 62.7481 246.852 61.5623 245.613 60.6738C244.374 59.7852 242.931 59.2224 241.418 59.0369C239.357 58.7761 237.268 59.2129 235.485 60.2777C234.845 60.6927 234.227 61.1408 233.634 61.6202Z" fill="#EBEBEB"/>
<path d="M228.989 50.0195C228.889 49.9822 228.793 49.9321 228.705 49.8703L227.837 49.3686L224.447 47.3684H224.555L218.548 53.6672V53.4977L221.45 57.8845L221.504 57.9659L221.457 58.0472C220.553 59.7002 219.869 61.4645 219.423 63.2951V63.3968H219.314L214.195 64.6782L214.338 64.4884C214.392 67.2005 214.453 70.1363 214.514 73.1941L214.344 72.9907L219.497 74.0552H219.633L219.667 74.184C220.188 75.9898 220.942 77.7198 221.911 79.3302L221.986 79.4455L221.911 79.5675L219.199 84.0695L219.165 83.7712L225.43 89.8123H225.125L229.518 86.924L229.647 86.8358L229.783 86.9104C231.425 87.8168 233.181 88.5008 235.004 88.9445L235.153 88.9784L235.193 89.1343L236.448 94.2398L236.19 94.0432L244.889 93.8872L244.638 94.0974C244.977 92.4702 245.316 90.7073 245.709 88.9445L245.743 88.7885L245.899 88.7411C247.702 88.2288 249.428 87.4786 251.032 86.5104L251.167 86.4223L251.31 86.5104L255.805 89.2225L255.473 89.2631L261.521 83.005L261.487 83.3305L258.612 78.9302L258.524 78.8013L258.599 78.659C259.506 77.0194 260.19 75.2659 260.633 73.445L260.673 73.2891L260.822 73.2552L265.935 72.0076L265.745 72.2585C265.691 69.2888 265.641 66.3868 265.596 63.5527L265.792 63.79L260.646 62.712H260.504L260.463 62.5696C259.961 60.7691 259.222 59.0431 258.266 57.437L258.192 57.3217L258.266 57.1997L260.978 52.7044L261.019 52.9824C258.815 50.8535 256.741 48.8397 254.768 46.921H255.019L250.611 49.789L250.517 49.8568L250.415 49.7958C248.77 48.8796 247.013 48.1821 245.187 47.721H245.079V47.6125C244.625 45.7548 244.225 44.0801 243.838 42.5003L243.994 42.6223L235.295 42.7376L235.41 42.6427C234.963 44.6767 234.603 46.3785 234.305 47.782V47.8363H234.258C232.885 48.2182 231.552 48.7313 230.278 49.3686L229.335 49.8568C229.238 49.922 229.134 49.9744 229.023 50.0127C229.117 49.9416 229.214 49.8759 229.315 49.8161C229.518 49.694 229.817 49.511 230.237 49.2872C231.501 48.6119 232.833 48.071 234.21 47.6736L234.149 47.7346C234.434 46.3311 234.773 44.636 235.187 42.5749V42.4867H235.281L243.987 42.2969H244.109V42.4189L245.377 47.5244L245.248 47.3956C247.112 47.8487 248.906 48.5487 250.584 49.4771H250.381L254.774 46.5819L254.91 46.4938L255.032 46.6091L261.304 52.6434L261.433 52.7655L261.338 52.9146C260.456 54.3791 259.555 55.8776 258.626 57.4167V57.1794C259.621 58.8236 260.394 60.5929 260.924 62.4408L260.741 62.2713L265.894 63.3358L266.084 63.3764V63.5731C266.138 66.3981 266.192 69.3001 266.247 72.2788V72.4822L266.05 72.5297L260.978 73.7908L261.168 73.6009C260.706 75.4689 260 77.2677 259.066 78.9505V78.6793L261.955 83.0728L262.07 83.2559L261.921 83.4051L255.88 89.6699L255.73 89.8259L255.547 89.7106L251.052 86.9986H251.323C249.679 87.9956 247.91 88.7707 246.062 89.3038L246.252 89.1004C245.886 90.87 245.52 92.6261 245.181 94.2534L245.133 94.4635H244.923L236.217 94.6127H236.007L235.96 94.4093L234.671 89.3038L234.861 89.4937C232.994 89.0314 231.198 88.3222 229.518 87.385H229.79L225.389 90.2598L225.22 90.3683L225.077 90.2327L218.826 84.178L218.684 84.0424L218.785 83.8797L221.497 79.3912V79.6285C220.507 77.9816 219.741 76.2099 219.219 74.3603L219.389 74.5163L214.236 73.4382L214.073 73.4043V73.2348C214.026 70.177 213.978 67.2683 213.938 64.5291V64.3799L214.087 64.3392L219.199 63.1052L219.07 63.2341C219.533 61.3761 220.242 59.5884 221.179 57.9184V58.0811C220.148 56.4878 219.185 55.0029 218.311 53.6672L218.256 53.5791L218.331 53.4977L224.433 47.2735L224.481 47.2193L224.542 47.26C225.979 48.1482 227.084 48.8397 227.85 49.294L228.705 49.8296C228.895 49.9788 228.989 50.0127 228.989 50.0195Z" fill="#EBEBEB"/>
<path d="M32.9881 129.781L33.7339 131.029C34.5813 132.427 35.8088 133.556 37.2732 134.283L38.575 134.927L37.3274 135.68C35.9278 136.523 34.7986 137.749 34.0729 139.212L33.3949 140.521L32.6423 139.273C31.8033 137.871 30.5765 136.741 29.1098 136.019L27.8013 135.341L29.0488 134.595C30.4504 133.752 31.58 132.523 32.3033 131.056L32.9881 129.781Z" fill="#E0E0E0"/>
<path d="M204.703 29.5762L205.076 30.1999C205.496 30.9023 206.11 31.4676 206.845 31.8272L207.523 32.1526L206.9 32.5255C206.2 32.9492 205.636 33.563 205.272 34.2952L204.947 34.9732L204.574 34.3494C204.15 33.6502 203.537 33.0859 202.804 32.7222L202.126 32.4035L202.75 32.0238C203.451 31.6046 204.016 30.9926 204.377 30.261L204.703 29.5762Z" fill="#E0E0E0"/>
<path d="M193.502 10.2939L194.662 12.2127C195.953 14.3671 197.836 16.1059 200.086 17.2233L202.12 18.2132L200.201 19.3658C198.049 20.6604 196.311 22.5421 195.19 24.79L194.201 26.824L193.028 24.8917C191.737 22.7359 189.855 20.9966 187.603 19.8811L185.569 18.8844L187.488 17.7318C189.642 16.4399 191.381 14.5575 192.499 12.3077L193.502 10.2939Z" fill="#E0E0E0"/>
<path d="M226.399 253.771L226.779 254.394C227.2 255.093 227.812 255.657 228.542 256.022L229.22 256.34L228.596 256.72C227.894 257.137 227.329 257.75 226.969 258.483L226.643 259.161L226.27 258.537C225.849 257.836 225.234 257.271 224.501 256.91L223.823 256.584L224.447 256.211C225.146 255.788 225.71 255.174 226.074 254.442L226.399 253.771Z" fill="#E0E0E0"/>
<path d="M265.562 143.647L266.714 145.566C268.008 147.719 269.89 149.458 272.139 150.577L274.173 151.567L272.254 152.726C270.1 154.016 268.363 155.899 267.25 158.15L266.253 160.184L265.101 158.266C263.807 156.113 261.925 154.374 259.677 153.255L257.643 152.265L259.561 151.106C261.715 149.815 263.452 147.932 264.565 145.682L265.562 143.647Z" fill="#E0E0E0"/>
<path d="M273.475 282.572C273.475 282.667 214.751 282.748 142.332 282.748C69.9134 282.748 11.1768 282.667 11.1768 282.572C11.1768 282.477 69.8863 282.396 142.332 282.396C214.779 282.396 273.475 282.477 273.475 282.572Z" fill="#263238"/>
<path d="M90.1654 137.084C83.7717 139.626 79.7578 143.769 75.5812 149.234C68.0213 159.14 23.896 207.598 23.7536 208.635C18.0989 226.901 44.3653 243.655 61.1327 229.992C69.8113 222.928 96.6065 186.796 96.6065 186.796L95.3251 135.036L90.1654 137.084Z" fill="#E0E0E0"/>
<path d="M216.846 135.842C211.632 131.374 195.15 128.676 195.15 128.676L192.499 129.496C193.902 136.656 202.669 181.392 202.669 182.422C202.669 183.453 274.586 229.748 274.586 229.748L282.79 197.556C282.79 197.556 222.067 140.317 216.846 135.842Z" fill="#E0E0E0"/>
<path d="M94.7557 135.497L123.721 127.808L133.118 115.726L176.755 117.102L184.071 125.367L209.652 132.418L207.74 257.919L215.436 282.382H81.731L92.4097 247.993L87.3382 188.918L94.7557 135.497Z" fill="#E0E0E0"/>
<path d="M186.817 35.7398C177.623 24.4983 165.276 18.03 150.753 17.7859C142.563 17.6503 139.173 19.3589 133.274 20.9455C127.375 22.532 122.053 25.6916 118.534 30.6954C114.357 36.628 110.845 43.2726 110.052 50.4867C109.245 57.8974 108.431 65.3556 108.987 72.7935C109.543 80.2313 111.564 87.7098 115.944 93.7442L134.86 97.0326C145.302 97.3851 155.879 97.7106 166.049 95.3511C176.219 92.9916 186.118 87.4861 191.563 78.5702C199.157 66.2099 196.011 47.0017 186.817 35.7398Z" fill="#263238"/>
<path d="M121.666 104.422C121.707 104.463 121.361 104.89 120.541 105.412C119.357 106.139 118.024 106.588 116.642 106.728C114.56 106.955 112.459 106.531 110.628 105.514C108.404 104.17 106.784 102.02 106.106 99.5119C105.427 97.0034 105.743 94.33 106.987 92.0486C108.058 90.2512 109.659 88.83 111.571 87.9805C112.835 87.4078 114.211 87.1252 115.598 87.1533C116.568 87.194 117.083 87.3838 117.069 87.4448C117.069 87.6686 114.866 87.2007 111.916 88.6992C110.226 89.5711 108.828 90.9194 107.896 92.5774C106.846 94.628 106.597 96.9954 107.196 99.2197C107.795 101.444 109.199 103.366 111.137 104.612C112.775 105.576 114.662 106.036 116.561 105.934C119.89 105.745 121.565 104.219 121.666 104.422Z" fill="#E0E0E0"/>
<path d="M205.15 90.6598C204.682 86.3951 202.438 82.1982 198.75 80.015C195.061 77.8317 189.888 78.0623 186.81 81.0523L183.833 84.5916C179.175 86.5782 176.246 91.8735 176.816 96.9044C177.162 99.4221 178.218 101.789 179.861 103.728C181.503 105.668 183.664 107.099 186.091 107.854C188.534 108.544 191.113 108.594 193.582 108C196.05 107.407 198.324 106.189 200.187 104.464C202.017 102.697 203.416 100.534 204.276 98.1401C205.137 95.7466 205.436 93.1873 205.15 90.6598Z" fill="#263238"/>
<path d="M201.401 103.433C201.265 103.365 202.574 102.158 202.418 99.6628C202.262 97.1677 200.506 94.0691 198.092 91.1604C195.977 88.6622 193.404 86.591 190.512 85.0583C188.295 83.8718 186.769 83.4378 186.817 83.2819C186.864 83.1259 188.444 83.3971 190.803 84.4684C193.889 85.882 196.62 87.9668 198.797 90.5706C200.009 91.9855 201.036 93.5484 201.855 95.2218C202.593 96.5858 203.01 98.0999 203.075 99.6492C203.1 100.713 202.805 101.759 202.228 102.653C201.801 103.256 201.435 103.466 201.401 103.433Z" fill="#455A64"/>
<path d="M192.248 109.013C191.943 109.013 193.231 103.277 191.407 96.5243C189.685 89.7441 185.766 85.3845 186.024 85.2218C186.098 85.1472 187.176 86.1168 188.526 88.0288C192.015 93.0934 193.617 99.2211 193.055 105.345C192.818 107.664 192.35 109.041 192.248 109.013Z" fill="#455A64"/>
<path d="M176.653 42.4117C176.593 40.6524 175.874 38.9797 174.64 37.7243C173.406 36.4689 171.746 35.7221 169.988 35.6315L144.773 25.6172L138.182 26.3833C123.361 26.4376 113.143 42.7846 113.042 54.7855C112.933 68.1221 113.333 84.4081 115.448 94.2393C119.713 114.01 135.111 115.705 135.111 115.705C135.059 119.343 135.366 122.976 136.026 126.554L154.909 184.904L177.412 126.832L176.653 42.4117Z" fill="#A26760"/>
<path d="M145.098 89.6149C144.949 88.6008 144.433 87.6767 143.648 87.0181C142.931 86.4023 142.031 86.0394 141.088 85.9855C140.144 85.9316 139.209 86.1896 138.427 86.7198C137.611 87.3467 136.979 88.1801 136.593 89.1337C136.208 90.0874 136.085 91.1267 136.237 92.1439C136.671 92.7522 137.23 93.2606 137.877 93.6348C138.523 94.0091 139.243 94.2405 139.986 94.3136C140.212 94.3261 140.438 94.3261 140.664 94.3136C141.839 94.3055 142.969 93.858 143.831 93.0592C144.29 92.6196 144.643 92.0807 144.863 91.4838C145.083 90.8869 145.163 90.2477 145.098 89.6149Z" fill="#7B4B45"/>
<path d="M122.846 68.4476C122.876 69.1148 123.166 69.7438 123.653 70.2C124.141 70.6562 124.788 70.9033 125.456 70.8884C125.783 70.8975 126.108 70.8408 126.413 70.7218C126.717 70.6028 126.994 70.4238 127.228 70.1956C127.462 69.9673 127.648 69.6943 127.775 69.3929C127.901 69.0914 127.966 68.7677 127.965 68.4408C127.935 67.7741 127.646 67.1454 127.16 66.6884C126.674 66.2313 126.028 65.9819 125.361 65.9931C125.033 65.984 124.707 66.0409 124.402 66.1602C124.097 66.2796 123.819 66.459 123.584 66.688C123.349 66.9169 123.163 67.1906 123.036 67.4929C122.909 67.7951 122.845 68.1198 122.846 68.4476Z" fill="#263238"/>
<path d="M117.95 62.1827C118.289 62.5014 120.147 60.9623 122.9 60.8267C125.652 60.6911 127.741 61.9522 128.025 61.5996C128.161 61.4369 127.809 60.8538 126.893 60.2436C125.655 59.4855 124.213 59.1257 122.764 59.213C121.334 59.2889 119.964 59.8159 118.852 60.7182C118.045 61.4301 117.787 62.0471 117.95 62.1827Z" fill="#263238"/>
<path d="M135.247 83.0383C135.247 82.8824 133.525 82.679 130.731 82.4756C130.053 82.4417 129.375 82.34 129.213 81.8653C129.05 81.3907 129.267 80.5907 129.565 79.7567C130.135 78.021 130.725 76.1971 131.348 74.2919C133.816 66.515 135.559 60.1349 135.247 60.0535C134.935 59.9722 132.677 66.1557 130.209 73.9597C129.62 75.8785 129.05 77.7023 128.514 79.4516C128.291 80.2652 127.884 81.1941 128.304 82.2315C128.418 82.4746 128.586 82.6884 128.795 82.8564C129.004 83.0245 129.249 83.1424 129.511 83.201C129.908 83.281 130.313 83.3152 130.718 83.3027C133.511 83.2756 135.247 83.201 135.247 83.0383Z" fill="#263238"/>
<path d="M135.131 115.705C144.529 115.333 153.638 112.359 161.445 107.114C161.445 107.114 155.343 121.353 135.281 120.586L135.131 115.705Z" fill="#7B4B45"/>
<path d="M143.451 84.4959C143.003 84.4959 143.159 87.4791 140.739 89.7437C138.318 92.0083 135.104 91.8523 135.104 92.2659C135.104 92.4558 135.844 92.8083 137.186 92.7744C138.947 92.7092 140.629 92.0222 141.932 90.8353C143.172 89.6969 143.923 88.1221 144.027 86.4418C144.027 85.1874 143.681 84.4687 143.451 84.4959Z" fill="#263238"/>
<path d="M118.5 51.8153C119.002 52.4933 121.083 51.8967 123.558 51.9645C126.033 52.0323 128.101 52.5747 128.609 51.9645C128.84 51.6594 128.534 51.0153 127.639 50.3847C126.427 49.6042 125.014 49.192 123.571 49.1982C122.138 49.1582 120.724 49.5376 119.503 50.2898C118.595 50.8729 118.283 51.5034 118.5 51.8153Z" fill="#263238"/>
<path d="M154.868 67.7151C154.889 68.3829 154.647 69.0322 154.194 69.524C153.742 70.0157 153.115 70.3106 152.448 70.3458C152.12 70.3803 151.789 70.3486 151.474 70.2527C151.158 70.1568 150.866 69.9985 150.613 69.7873C150.36 69.5761 150.152 69.3163 150.001 69.0232C149.85 68.7301 149.76 68.4098 149.736 68.0812C149.719 67.4143 149.962 66.7669 150.414 66.276C150.865 65.785 151.49 65.489 152.156 65.4505C152.484 65.4141 152.816 65.4444 153.132 65.5395C153.448 65.6347 153.742 65.7929 153.995 66.0044C154.249 66.2159 154.457 66.4765 154.607 66.7705C154.757 67.0645 154.846 67.3858 154.868 67.7151Z" fill="#263238"/>
<path d="M155.662 61.2064C155.35 61.5454 153.39 60.1419 150.631 60.1961C147.871 60.2504 145.885 61.6674 145.58 61.3352C145.424 61.186 145.742 60.5758 146.61 59.9181C147.798 59.0688 149.218 58.6071 150.678 58.596C152.112 58.5682 153.517 58.9955 154.692 59.8164C155.519 60.4538 155.818 61.0504 155.662 61.2064Z" fill="#263238"/>
<path d="M157.241 55.2867C156.706 55.9241 154.57 55.2867 152.014 55.3274C149.458 55.3681 147.268 55.8291 146.793 55.1782C146.563 54.8664 146.895 54.2358 147.831 53.6256C149.109 52.8684 150.576 52.4877 152.061 52.5272C153.543 52.5152 154.996 52.9269 156.251 53.7137C157.174 54.3375 157.479 54.9748 157.241 55.2867Z" fill="#263238"/>
<path d="M173.229 75.9196C173.148 74.4347 174.673 70.8412 176.131 70.5293C180.009 69.7089 187.088 69.6343 187.698 79.5741C188.532 93.1344 174.721 91.2021 174.667 90.8156C174.612 90.4291 173.514 81.0522 173.229 75.9196Z" fill="#A26760"/>
<path d="M178.111 85.6144C178.172 85.5669 178.362 85.7704 178.789 85.9263C179.369 86.1333 180.006 86.1066 180.566 85.8517C181.969 85.2415 183.041 82.882 182.952 80.4276C182.916 79.2604 182.62 78.1161 182.085 77.0782C181.93 76.6609 181.677 76.2873 181.346 75.9897C181.015 75.6921 180.617 75.4793 180.186 75.3696C179.91 75.3144 179.624 75.3574 179.376 75.4911C179.128 75.6248 178.935 75.8408 178.83 76.1018C178.674 76.4951 178.776 76.7798 178.708 76.7798C178.64 76.7798 178.396 76.5697 178.478 76.0069C178.527 75.6629 178.698 75.3479 178.959 75.1187C179.316 74.8134 179.778 74.66 180.247 74.6915C181.298 74.6915 182.281 75.6069 182.851 76.6442C183.5 77.7879 183.861 79.0725 183.902 80.3869C183.983 83.099 182.735 85.7771 180.81 86.4891C180.451 86.6172 180.068 86.6631 179.689 86.6232C179.31 86.5833 178.944 86.4587 178.62 86.2585C178.159 85.9466 178.071 85.6415 178.111 85.6144Z" fill="#7B4B45"/>
<path d="M177.162 70.1905L173.229 74.1501C158.313 59.8779 129.158 24.1396 130.806 26.2685C130.806 26.2685 141.017 22.0716 152.109 23.9565C163.201 25.8414 184.227 31.4147 183.901 44.4733C183.576 57.5319 177.162 70.1905 177.162 70.1905Z" fill="#263238"/>
<path d="M176.368 104.423C176.328 104.464 176.674 104.891 177.494 105.413C178.677 106.141 180.01 106.59 181.393 106.729C183.474 106.953 185.575 106.529 187.407 105.515C189.628 104.169 191.246 102.018 191.923 99.5106C192.6 97.0027 192.284 94.3304 191.041 92.0495C189.973 90.2526 188.374 88.8313 186.464 87.9814C185.2 87.4094 183.824 87.1268 182.437 87.1542C181.927 87.1166 181.416 87.2173 180.959 87.4457C180.959 87.6695 183.162 87.2016 186.118 88.7001C187.809 89.572 189.207 90.9203 190.139 92.5783C191.187 94.6332 191.434 97.0046 190.831 99.2313C190.229 101.458 188.819 103.381 186.878 104.627C185.239 105.59 183.352 106.05 181.454 105.949C178.145 105.745 176.47 104.22 176.368 104.423Z" fill="#E0E0E0"/>
<path d="M196.431 67.5662C196.391 67.297 196.32 67.0332 196.221 66.7797C195.975 66.0408 195.666 65.324 195.299 64.6371C193.893 62.1193 191.954 59.9394 189.617 58.2502C186.736 56.0127 182.735 54.1821 178.179 52.7447C173.623 51.3073 168.511 50.114 163.48 47.9443C158.729 45.9652 154.224 43.442 150.055 40.4251C146.648 37.9546 143.471 35.1815 140.563 32.1398C138.612 30.0783 136.782 27.905 135.084 25.6308L133.728 23.7595C133.585 23.5297 133.414 23.318 133.22 23.1289C133.325 23.3689 133.457 23.5963 133.613 23.8069C133.898 24.2544 134.291 24.9257 134.874 25.7596C136.498 28.1072 138.283 30.3388 140.217 32.4381C143.091 35.5573 146.258 38.3932 149.675 40.9065C153.873 43.9898 158.425 46.5576 163.236 48.5546C168.327 50.7378 173.487 51.8768 178.01 53.3007C182.532 54.7245 186.478 56.4399 189.346 58.5824C191.659 60.1981 193.612 62.2759 195.082 64.6846C196.058 66.5085 196.363 67.6068 196.431 67.5662Z" fill="#455A64"/>
<path d="M192.499 69.708C192.535 68.6918 192.355 67.6796 191.97 66.7383C190.947 64.1417 189.169 61.9119 186.864 60.3378C184.023 58.2224 179.976 56.9071 175.521 55.89C170.672 54.9256 165.944 53.4271 161.425 51.4219C156.935 49.3617 152.715 46.7566 148.861 43.6654C145.719 41.1329 142.835 38.2964 140.251 35.197C138.513 33.1011 136.91 30.8977 135.45 28.5998C134.982 27.8269 134.596 27.1964 134.298 26.6946C134.178 26.4504 134.028 26.2225 133.85 26.0166C133.928 26.2668 134.037 26.5061 134.176 26.7285L135.213 28.7016C136.597 31.0729 138.154 33.3391 139.871 35.4817C145.578 42.5748 152.861 48.2393 161.14 52.0253C165.701 54.0528 170.478 55.5519 175.379 56.4935C179.82 57.4698 183.786 58.7038 186.58 60.7108C188.845 62.2075 190.629 64.3264 191.719 66.8129C192.067 67.7521 192.328 68.7212 192.499 69.708Z" fill="#455A64"/>
<g opacity="0.3">
<path d="M204.595 201.936C204.34 200.786 203.687 199.763 202.75 199.048C201.279 198.125 199.265 198.776 198.004 199.963C196.743 201.149 195.97 202.756 194.98 204.187C193.391 206.428 191.252 208.223 188.77 209.401C186.287 210.579 183.544 211.099 180.803 210.913C176.986 210.601 173.379 208.913 169.568 208.594C165.019 208.214 159.778 209.408 155.493 210.96L155.764 219.937C155.594 221.693 157.662 222.405 159.425 222.263C161.188 222.121 163.025 221.429 164.653 222.121C165.765 222.588 166.524 223.605 167.365 224.48C169.402 226.533 172.033 227.895 174.885 228.373C177.738 228.851 180.669 228.421 183.264 227.145C185.244 226.114 187.034 224.568 189.244 224.195C191.278 223.849 193.346 224.561 195.38 224.297C198.031 223.944 200.208 221.985 201.761 219.802C203.557 217.234 204.746 214.291 205.237 211.196C205.728 208.1 205.508 204.934 204.595 201.936Z" fill="black"/>
</g>
<g opacity="0.3">
<path d="M81.1955 148.5C82.3889 146.832 82.8635 144.324 81.4668 142.818C78.2055 145.788 72.8898 146.256 70.5236 149.978C69.3438 151.829 69.1675 154.121 69.0387 156.318C68.216 169.58 67.5877 182.853 67.1538 196.138L67.7776 199.528C71.5609 189.669 75.3488 179.809 79.1412 169.946C80.1514 167.322 81.0871 164.115 79.3446 161.905C78.3411 160.63 76.6325 160.006 75.8053 158.603C74.7747 156.826 75.6087 154.535 76.924 152.934C78.2394 151.334 79.9955 150.168 81.1955 148.5Z" fill="black"/>
</g>
<path d="M51.1729 146.969L23.7539 208.634L58.6311 225.219L78.3207 164.801L51.1729 146.969Z" fill="#E0E0E0"/>
<path d="M51.1729 146.969C51.1729 146.969 51.2271 146.969 51.3152 147.043L51.722 147.287L53.2611 148.264L58.9701 151.952L78.4156 164.651L78.5105 164.719V164.794C78.3139 165.614 78.0698 166.306 77.8325 167.065C77.5952 167.825 77.3579 168.564 77.1206 169.33C76.6256 170.849 76.1239 172.401 75.6222 173.974C72.0354 185.019 68.7267 194.993 66.3265 202.22L63.4517 210.757C63.1127 211.747 62.8415 212.526 62.6517 213.075L62.4415 213.672C62.4184 213.742 62.3889 213.811 62.3534 213.876C62.3628 213.804 62.3787 213.734 62.4008 213.665L62.5839 213.055C62.7602 212.499 63.011 211.699 63.3229 210.716C64.0009 208.682 64.923 205.746 66.0892 202.139L75.2831 173.866L76.7816 169.221C77.0257 168.462 77.2697 167.709 77.507 166.963C77.6223 166.591 77.7376 166.218 77.8461 165.852L78.0156 165.309L78.0901 165.051V164.923V164.862V164.814H78.2258L78.1715 164.963L58.7938 152.156L53.1391 148.386L51.6339 147.355L51.2474 147.084L51.1729 146.969Z" fill="#263238"/>
<path d="M65.1533 212.75C65.2158 211.938 65.3359 211.131 65.5127 210.336C65.7907 208.763 66.1365 206.763 66.5161 204.546C66.8958 202.329 67.1942 200.322 67.445 198.742C67.5354 197.933 67.6803 197.131 67.879 196.342C67.9153 196.566 67.9153 196.795 67.879 197.02C67.879 197.44 67.7908 198.044 67.7027 198.796C67.5399 200.288 67.2552 202.356 66.8823 204.627C66.5094 206.899 66.0958 208.933 65.7771 210.411C65.6144 211.143 65.472 211.767 65.3635 212.146C65.3175 212.355 65.2469 212.558 65.1533 212.75Z" fill="#263238"/>
<path d="M84.8904 165.485C84.9173 165.55 84.9334 165.619 84.9379 165.689C84.9379 165.845 84.9989 166.048 85.0464 166.299C85.1278 166.835 85.2634 167.655 85.4057 168.645C85.5481 169.635 85.6837 170.93 85.86 172.381C86.0363 173.832 86.1922 175.5 86.3821 177.33C87.1076 184.666 87.9415 194.823 88.8297 206.038C89.7179 217.252 90.5044 227.415 91.1689 234.758C91.3384 236.589 91.5011 238.25 91.6367 239.708C91.7723 241.166 91.9215 242.42 92.0367 243.444C92.152 244.468 92.2605 245.241 92.3283 245.797C92.3283 246.054 92.3825 246.258 92.3961 246.414C92.4037 246.483 92.4037 246.554 92.3961 246.624C92.3732 246.558 92.3573 246.49 92.3486 246.42L92.2469 245.81C92.1588 245.274 92.03 244.454 91.8876 243.464C91.7452 242.474 91.6028 241.179 91.4265 239.735C91.2502 238.291 91.1011 236.609 90.9045 234.779C90.179 227.443 89.345 217.286 88.4636 206.065C87.5822 194.844 86.7821 184.694 86.1177 177.351C85.9482 175.52 85.7922 173.859 85.6498 172.401C85.5074 170.943 85.3651 169.689 85.2566 168.665C85.1481 167.641 85.0328 166.875 84.9582 166.313C84.9582 166.055 84.9108 165.851 84.8904 165.696C84.8829 165.626 84.8829 165.555 84.8904 165.485Z" fill="#263238"/>
<path d="M155.391 209.699C155.334 209.629 155.284 209.554 155.242 209.475C155.147 209.305 155.018 209.075 154.848 208.797C154.503 208.173 154.001 207.292 153.363 206.159L147.939 196.409L130.216 164.204L120.825 147.05L120.73 146.887L120.907 146.819L127.687 144.243V144.514L116.5 137.137L116.398 137.069L116.473 136.974L121.788 130.113L123.212 128.303C123.368 128.106 123.497 127.957 123.585 127.835L123.721 127.686C123.721 127.686 123.687 127.747 123.612 127.855L123.266 128.336L121.91 130.187L116.676 137.11V136.947L127.904 144.263L128.155 144.419L127.877 144.528L121.097 147.124L121.178 146.894L130.596 164.034L148.224 196.294L153.533 206.091C154.143 207.237 154.625 208.126 154.957 208.763L155.323 209.441C155.354 209.524 155.376 209.611 155.391 209.699Z" fill="#263238"/>
<path d="M155.391 209.699C155.416 209.612 155.45 209.528 155.492 209.448C155.567 209.265 155.675 209.028 155.818 208.723L157.099 205.943L161.845 195.773C165.913 187.169 171.541 175.324 177.745 162.231L186.396 144.135L186.485 144.352L179.704 141.755L179.426 141.653L179.677 141.491L190.905 134.182V134.338L185.671 127.415L184.315 125.564L183.969 125.089C183.924 125.039 183.887 124.982 183.861 124.92C183.908 124.965 183.951 125.015 183.989 125.069L184.362 125.53L185.793 127.347L191.109 134.209L191.183 134.297L191.081 134.365L179.894 141.742V141.477L186.674 144.047L186.837 144.115L186.762 144.271C184.118 149.83 181.216 155.953 178.165 162.38L162.171 195.868C160.137 200.139 158.455 203.597 157.289 206.004C156.713 207.184 156.265 208.106 155.933 208.75C155.784 209.055 155.662 209.286 155.574 209.462C155.521 209.547 155.459 209.626 155.391 209.699Z" fill="#263238"/>
<path d="M135.918 126.879C135.918 126.879 152.868 158.569 177.413 126.879L155.113 194.945L135.918 126.879Z" fill="#455A64"/>
<path d="M160.632 278.036C160.608 277.969 160.594 277.898 160.591 277.826L160.51 277.202C160.435 276.626 160.34 275.846 160.211 274.789C159.974 272.673 159.628 269.649 159.208 265.92C158.408 258.421 157.357 248.061 156.536 236.582C155.716 225.104 155.35 214.682 155.18 207.143C155.106 203.373 155.065 200.329 155.065 198.22C155.065 197.183 155.065 196.369 155.065 195.793V195.155C155.059 195.086 155.059 195.015 155.065 194.945C155.074 195.015 155.074 195.086 155.065 195.155C155.065 195.318 155.065 195.528 155.065 195.786C155.065 196.369 155.106 197.183 155.133 198.213C155.18 200.349 155.262 203.387 155.357 207.136C155.574 214.676 155.987 225.083 156.794 236.555C157.601 248.027 158.625 258.394 159.364 265.893C159.737 269.629 160.042 272.673 160.252 274.775C160.354 275.806 160.428 276.619 160.483 277.196C160.483 277.453 160.523 277.663 160.53 277.826C160.576 277.89 160.61 277.961 160.632 278.036Z" fill="#263238"/>
<g opacity="0.3">
<path d="M189.63 135.151L190.966 136.779L184.138 141.348L190.769 143.769L160.53 198.892L186.545 144.203L179.758 141.62L189.63 135.151Z" fill="black"/>
</g>
<path d="M209.503 158.251C209.512 158.334 209.512 158.418 209.503 158.502C209.503 158.692 209.503 158.936 209.503 159.248C209.503 159.926 209.503 160.882 209.503 162.109C209.503 164.618 209.503 168.211 209.462 172.639C209.408 181.521 209.286 193.799 209.069 207.36C208.852 220.92 208.588 233.199 208.303 242.081C208.161 246.522 208.039 250.116 207.917 252.597L207.774 255.458C207.774 255.77 207.774 256.014 207.727 256.197C207.738 256.283 207.738 256.37 207.727 256.455C207.719 256.369 207.719 256.283 207.727 256.197C207.727 256.014 207.727 255.77 207.727 255.452C207.727 254.774 207.767 253.818 207.801 252.597C207.862 250.088 207.957 246.495 208.079 242.074C208.296 233.192 208.527 220.913 208.757 207.353C208.988 193.793 209.123 181.534 209.252 172.632C209.32 168.204 209.368 164.618 209.408 162.109C209.408 160.882 209.449 159.919 209.462 159.248C209.462 158.936 209.462 158.692 209.462 158.502L209.503 158.251Z" fill="#263238"/>
<path d="M133.362 199.78C133.355 199.73 133.355 199.68 133.362 199.631C133.362 199.522 133.362 199.387 133.362 199.21C133.362 198.824 133.362 198.288 133.362 197.597C133.362 196.18 133.328 194.145 133.301 191.576L133.409 191.684L99.8065 191.752L99.9828 191.576V195.752C99.9828 197.108 99.9828 198.464 99.9828 199.82L99.8133 199.651L123.74 199.726L130.819 199.78H132.731H133.233H133.416C133.364 199.79 133.311 199.79 133.26 199.78H132.778H130.9L123.863 199.827L99.8133 199.909H99.6099V191.589L99.7861 191.413L133.389 191.488H133.49V191.589C133.49 194.186 133.443 196.241 133.429 197.692C133.429 198.37 133.429 198.898 133.429 199.285C133.429 199.448 133.429 199.583 133.429 199.685C133.41 199.718 133.387 199.75 133.362 199.78Z" fill="#263238"/>
<g opacity="0.3">
<path d="M101.604 199.779C101.604 199.779 117.293 205.956 131.721 199.779H101.604Z" fill="black"/>
</g>
<path d="M125.782 179.188H125.992C126.655 179.188 127.292 179.451 127.761 179.92C128.23 180.389 128.494 181.026 128.494 181.689V191.575H123.273V181.689C123.273 181.36 123.338 181.034 123.464 180.73C123.59 180.426 123.775 180.15 124.008 179.918C124.241 179.685 124.518 179.501 124.822 179.376C125.126 179.251 125.452 179.187 125.782 179.188Z" fill="#455A64"/>
<path d="M125.883 188.796H128.494V202.729C128.494 203.062 128.362 203.381 128.126 203.616C127.891 203.851 127.572 203.984 127.239 203.984H127.138C126.805 203.984 126.486 203.851 126.251 203.616C126.015 203.381 125.883 203.062 125.883 202.729V188.796Z" fill="#455A64"/>
<path d="M128.643 205.882C128.703 206.172 128.733 206.467 128.731 206.763C128.765 207.333 128.792 208.16 128.812 209.177C128.812 211.211 128.812 214.025 128.615 217.123C128.52 218.676 128.392 220.154 128.256 221.49C128.205 222.696 127.989 223.889 127.612 225.036C127.465 225.424 127.239 225.778 126.949 226.074C126.658 226.371 126.309 226.604 125.924 226.758C125.708 226.841 125.477 226.88 125.246 226.873C125.096 226.873 125.015 226.873 125.015 226.873C125.303 226.842 125.585 226.773 125.856 226.67C126.565 226.328 127.108 225.718 127.368 224.975C127.699 223.844 127.883 222.675 127.917 221.497C128.039 220.141 128.154 218.683 128.249 217.137C128.439 214.045 128.514 211.238 128.548 209.211C128.548 208.248 128.548 207.441 128.582 206.804C128.571 206.495 128.592 206.186 128.643 205.882Z" fill="#263238"/>
<path d="M121.897 220.092C121.732 218.062 121.684 216.025 121.754 213.99C121.705 211.954 121.773 209.916 121.958 207.888C122.123 209.917 122.173 211.955 122.107 213.99C122.156 216.026 122.086 218.064 121.897 220.092Z" fill="#263238"/>
<path d="M162.367 166.048C164.297 164.873 166.374 163.961 168.544 163.336L169.812 157.234L180.138 157.051L181.63 163.112C183.819 163.653 185.925 164.483 187.895 165.58L190.478 162.129H193.109L200.567 169.303L197.333 174.639C198.507 176.568 199.42 178.645 200.045 180.815L206.147 182.09L206.33 192.416L200.269 193.901C199.728 196.09 198.898 198.197 197.801 200.166L201.225 205.387L194.051 212.845L191.237 212.709L188.715 209.611C186.786 210.777 184.708 211.678 182.538 212.289L181.264 218.391L170.938 218.574L169.453 212.506C167.264 211.968 165.157 211.14 163.188 210.045L157.967 213.435H155.33L150.461 206.322L153.702 200.986C152.521 199.061 151.609 196.982 150.99 194.81L144.888 193.542L144.712 183.215L150.773 181.731C151.31 179.54 152.138 177.43 153.235 175.459L149.845 170.245L154.38 162.787H157.018L162.354 166.021L162.367 166.048ZM167.873 179.805C166.351 181.382 165.33 183.374 164.941 185.53C164.551 187.687 164.81 189.91 165.684 191.92C166.558 193.929 168.009 195.634 169.852 196.819C171.695 198.004 173.849 198.616 176.04 198.577C178.231 198.538 180.361 197.851 182.161 196.601C183.961 195.351 185.35 193.596 186.153 191.557C186.955 189.517 187.135 187.286 186.669 185.145C186.203 183.004 185.112 181.049 183.535 179.527C181.42 177.489 178.583 176.374 175.647 176.426C172.71 176.478 169.914 177.693 167.873 179.805Z" fill="#FF725E"/>
<g opacity="0.3">
<path d="M162.367 166.048C164.297 164.873 166.374 163.961 168.544 163.336L169.812 157.234L180.138 157.051L181.63 163.112C183.819 163.653 185.925 164.483 187.895 165.58L190.478 162.129H193.109L200.567 169.303L197.333 174.639C198.507 176.568 199.42 178.645 200.045 180.815L206.147 182.09L206.33 192.416L200.269 193.901C199.728 196.09 198.898 198.197 197.801 200.166L201.225 205.387L194.051 212.845L191.237 212.709L188.715 209.611C186.786 210.777 184.708 211.678 182.538 212.289L181.264 218.391L170.938 218.574L169.453 212.506C167.264 211.968 165.157 211.14 163.188 210.045L157.967 213.435H155.33L150.461 206.322L153.702 200.986C152.521 199.061 151.609 196.982 150.99 194.81L144.888 193.542L144.712 183.215L150.773 181.731C151.31 179.54 152.138 177.43 153.235 175.459L149.845 170.245L154.38 162.787H157.018L162.354 166.021L162.367 166.048ZM167.873 179.805C166.351 181.382 165.33 183.374 164.941 185.53C164.551 187.687 164.81 189.91 165.684 191.92C166.558 193.929 168.009 195.634 169.852 196.819C171.695 198.004 173.849 198.616 176.04 198.577C178.231 198.538 180.361 197.851 182.161 196.601C183.961 195.351 185.35 193.596 186.153 191.557C186.955 189.517 187.135 187.286 186.669 185.145C186.203 183.004 185.112 181.049 183.535 179.527C181.42 177.489 178.583 176.374 175.647 176.426C172.71 176.478 169.914 177.693 167.873 179.805Z" fill="black"/>
</g>
<path d="M159.73 166.021C161.659 164.846 163.736 163.934 165.906 163.309L167.174 157.206L177.507 157.023L178.992 163.085C181.181 163.626 183.288 164.456 185.257 165.553L190.478 162.129L197.922 169.309L194.682 174.645C195.859 176.573 196.771 178.65 197.394 180.822L203.496 182.097L203.672 192.423L197.611 193.908C197.069 196.095 196.242 198.202 195.149 200.172L198.539 205.393L191.366 212.851L186.03 209.617C184.101 210.783 182.023 211.684 179.853 212.295L178.585 218.398L168.259 218.581L166.768 212.512C164.579 211.974 162.472 211.146 160.503 210.051L155.282 213.441L147.824 206.268L151.058 200.932C149.882 199.003 148.97 196.926 148.346 194.755L142.244 193.487L142.067 183.161L148.129 181.669C148.67 179.481 149.5 177.374 150.597 175.404L147.207 170.191L154.38 162.732L159.716 165.966L159.73 166.021ZM165.235 179.778C163.716 181.357 162.699 183.35 162.313 185.507C161.927 187.664 162.189 189.886 163.066 191.894C163.944 193.902 165.396 195.604 167.241 196.787C169.085 197.969 171.239 198.578 173.43 198.536C175.62 198.494 177.749 197.804 179.548 196.552C181.346 195.301 182.733 193.544 183.533 191.504C184.333 189.465 184.51 187.234 184.042 185.093C183.574 182.953 182.482 180.999 180.904 179.479C179.856 178.47 178.619 177.677 177.264 177.145C175.909 176.614 174.463 176.355 173.008 176.382C171.553 176.41 170.117 176.724 168.784 177.307C167.45 177.889 166.244 178.729 165.235 179.778Z" fill="#FF725E"/>
<path d="M200.54 169.363C200.54 169.464 199.95 169.539 199.224 169.539C198.499 169.539 197.902 169.464 197.902 169.363C197.902 169.261 198.492 169.187 199.224 169.187C199.957 169.187 200.54 169.268 200.54 169.363Z" fill="#263238"/>
<path d="M197.387 174.618C197.387 174.72 196.818 174.787 196.119 174.787C195.421 174.787 194.845 174.693 194.845 174.598C194.845 174.503 195.421 174.421 196.119 174.428C196.818 174.435 197.394 174.523 197.387 174.618Z" fill="#263238"/>
<path d="M205.801 182.144C205.801 182.246 205.286 182.347 204.635 182.381C203.984 182.415 203.455 182.381 203.455 182.273C203.455 182.164 203.97 182.069 204.614 182.035C205.259 182.001 205.794 182.049 205.801 182.144Z" fill="#263238"/>
<path d="M205.733 192.484C205.733 192.579 205.245 192.646 204.655 192.626C204.065 192.606 203.577 192.518 203.584 192.416C203.591 192.314 204.072 192.253 204.662 192.273C205.252 192.294 205.74 192.362 205.733 192.484Z" fill="#263238"/>
<path d="M197.78 200.342C197.78 200.437 197.204 200.457 196.519 200.39C195.835 200.322 195.292 200.186 195.299 200.091C195.306 199.996 195.875 199.969 196.56 200.044C197.245 200.118 197.787 200.247 197.78 200.342Z" fill="#263238"/>
<path d="M201.042 205.386C201.042 205.488 200.479 205.583 199.774 205.596C199.069 205.61 198.499 205.549 198.499 205.454C198.499 205.359 199.062 205.264 199.767 205.244C200.472 205.224 201.035 205.291 201.042 205.386Z" fill="#263238"/>
<path d="M182.457 212.465C182.457 212.56 181.84 212.54 181.101 212.465C180.362 212.391 179.779 212.364 179.745 212.262C180.173 212.08 180.644 212.028 181.101 212.113C181.888 212.187 182.471 212.37 182.457 212.465Z" fill="#263238"/>
<path d="M181.745 163.207C181.745 163.309 181.169 163.37 180.471 163.356C179.772 163.343 179.196 163.241 179.203 163.146C179.209 163.051 179.772 162.983 180.477 163.004C181.182 163.024 181.745 163.126 181.745 163.207Z" fill="#263238"/>
<path d="M154.089 164.502C152.343 166.528 150.422 168.395 148.346 170.082C149.178 169.032 150.099 168.057 151.099 167.167C152.018 166.195 153.018 165.303 154.089 164.502Z" fill="white"/>
<path d="M168.646 175.581C167.655 176.016 166.703 176.533 165.798 177.127C163.629 178.599 161.987 180.726 161.113 183.197C160.238 185.669 160.176 188.355 160.937 190.864C161.271 191.894 161.686 192.896 162.177 193.86C161.983 193.639 161.814 193.395 161.676 193.135C161.272 192.438 160.945 191.699 160.699 190.931C159.855 188.377 159.884 185.615 160.782 183.08C161.679 180.544 163.393 178.378 165.656 176.924C166.327 176.479 167.046 176.111 167.798 175.825C168.068 175.705 168.353 175.623 168.646 175.581Z" fill="white"/>
<path d="M173.141 175.031C173.141 175.133 172.789 175.235 172.348 175.262C171.907 175.289 171.541 175.262 171.534 175.133C171.527 175.004 171.887 174.936 172.328 174.909C172.768 174.882 173.134 174.936 173.141 175.031Z" fill="white"/>
<path d="M167.412 158.997C167.524 159.602 167.524 160.223 167.412 160.828C167.401 161.443 167.275 162.05 167.039 162.618C166.92 162.013 166.92 161.391 167.039 160.787C167.048 160.172 167.175 159.565 167.412 158.997Z" fill="white"/>
<path d="M189.156 163.498C189.217 163.573 188.756 164.061 188.119 164.583C187.481 165.105 186.918 165.478 186.857 165.403C186.796 165.329 187.258 164.841 187.895 164.312C188.532 163.783 189.108 163.423 189.156 163.498Z" fill="white"/>
<path d="M202.106 183.297C201.479 183.331 200.851 183.246 200.255 183.046C199.634 182.956 199.034 182.754 198.485 182.449C199.113 182.414 199.741 182.499 200.336 182.7C200.958 182.788 201.558 182.99 202.106 183.297Z" fill="white"/>
<path d="M146.597 183.059C146.124 183.476 145.55 183.761 144.933 183.886C144.315 184.011 143.676 183.971 143.078 183.771C143.078 183.669 143.905 183.737 144.861 183.541C145.817 183.344 146.543 182.971 146.597 183.059Z" fill="white"/>
<path d="M150.794 202.484C150.68 203.092 150.45 203.672 150.116 204.193C149.88 204.663 149.613 205.116 149.316 205.549L149.167 205.454C149.289 205.339 149.377 205.285 149.397 205.305C149.417 205.325 149.397 205.42 149.302 205.569L148.882 206.302L149.153 205.468C149.347 204.976 149.573 204.498 149.831 204.037C150.054 203.465 150.38 202.938 150.794 202.484Z" fill="white"/>
<path d="M169.385 217.326C169.029 216.736 168.779 216.089 168.646 215.414C168.393 214.765 168.255 214.076 168.239 213.38C168.847 214.609 169.235 215.936 169.385 217.299V217.326Z" fill="white"/>
<path d="M204.248 180.076C204.248 180.076 202.167 176.008 199.231 175.757C196.295 175.506 168.849 182.924 168.849 182.924C168.849 182.924 169.486 186.924 172.544 186.768C175.602 186.612 182.599 184.904 182.599 184.904L169.717 190.375C169.717 190.375 171.751 195.352 177.175 193.84C182.599 192.328 191.895 190.491 191.895 190.491L175.033 197.894C175.033 197.894 176.273 202.403 180.742 200.959C184.054 199.983 187.446 199.303 190.878 198.925L180.369 203.61C180.369 203.61 180.714 207.387 185.433 206.722C190.152 206.058 198.723 204.573 198.723 204.573C200.417 207.509 202.378 210.282 204.581 212.858C211.903 221.157 216.202 216.248 216.202 216.248L222.833 218.635C223.097 217.279 226.555 196.043 226.555 196.043L213.395 194.396C213.395 194.396 208.249 183.032 207.354 181.886C206.564 180.936 205.465 180.295 204.248 180.076Z" fill="#A26760"/>
<path d="M197.631 180.436C197.631 180.531 194.085 181.697 189.644 183.039C185.203 184.382 181.582 185.392 181.549 185.304C181.515 185.216 185.101 184.043 189.542 182.7C193.983 181.358 197.604 180.341 197.631 180.436Z" fill="#7B4B45"/>
<path d="M198.33 187.826C198.047 188.004 197.75 188.159 197.442 188.287L194.974 189.44C192.885 190.396 189.983 191.684 186.77 193.088C183.556 194.491 180.627 195.732 178.498 196.6C177.433 197.034 176.565 197.373 175.962 197.596C175.658 197.733 175.339 197.835 175.013 197.902C175.297 197.73 175.597 197.585 175.908 197.468L178.403 196.369L186.627 192.762L194.872 189.209L197.387 188.165C197.688 188.017 198.004 187.903 198.33 187.826Z" fill="#7B4B45"/>
<path d="M202.981 194.81C200.927 195.708 198.827 196.496 196.689 197.169C194.59 197.958 192.451 198.637 190.282 199.203C192.333 198.303 194.431 197.513 196.567 196.837C198.669 196.054 200.81 195.377 202.981 194.81Z" fill="#7B4B45"/>
<path d="M204.933 203.163C202.826 204.208 200.506 204.756 198.153 204.763C198.153 204.662 199.699 204.458 201.543 204.011C203.388 203.563 204.893 203.068 204.933 203.163Z" fill="#7B4B45"/>
<path d="M217.653 203.543L213.151 194.125L208.669 184.721C208.839 184.585 210.981 188.789 213.47 193.976C215.958 199.163 217.85 203.475 217.653 203.543Z" fill="#7B4B45"/>
<path d="M96.8711 93.1475L75.0254 137.327L79.6088 139.341L100.838 94.6323L96.8711 93.1475Z" fill="#455A64"/>
<path d="M107.624 96.5376C120.232 96.5376 130.453 86.3168 130.453 73.7087C130.453 61.1007 120.232 50.8799 107.624 50.8799C95.0162 50.8799 84.7954 61.1007 84.7954 73.7087C84.7954 86.3168 95.0162 96.5376 107.624 96.5376Z" fill="#A26760"/>
<path d="M130.426 74.7666C130.289 74.2957 130.227 73.8059 130.243 73.3157C130.243 73.0761 130.229 72.8117 130.202 72.5224C130.168 72.2308 130.114 71.9189 130.067 71.5732C129.974 70.7852 129.831 70.0038 129.639 69.234C129.163 67.1219 128.38 65.0911 127.314 63.2064C125.931 60.7173 124.09 58.5113 121.89 56.7042C119.229 54.5133 116.092 52.9761 112.73 52.2158C111.816 52.0114 110.889 51.8665 109.957 51.7818C109.482 51.7818 109.001 51.6801 108.519 51.6733H107.055C106.811 51.6733 106.566 51.6733 106.316 51.6733L105.577 51.7547C105.088 51.8157 104.587 51.8496 104.085 51.931C103.082 52.1148 102.092 52.3639 101.122 52.6768C100.123 52.9862 99.1464 53.3645 98.1997 53.8091C97.7251 54.0464 97.2641 54.3176 96.7962 54.5685C96.3238 54.822 95.8706 55.1098 95.4402 55.4296C94.5331 56.0499 93.6679 56.7294 92.8502 57.4636C92.0457 58.23 91.2915 59.0476 90.5924 59.9112C89.1539 61.6859 88.0093 63.6797 87.2023 65.8168C85.4861 70.2349 85.2482 75.0903 86.5243 79.6551C87.135 81.8581 88.0965 83.9482 89.3719 85.8454C89.9886 86.7745 90.6682 87.6603 91.406 88.4965C92.1511 89.2964 92.9484 90.0461 93.7926 90.7407C94.1958 91.0965 94.624 91.4228 95.0741 91.717C95.5148 92.0154 95.9487 92.3273 96.3962 92.6052C97.3004 93.1336 98.238 93.6024 99.2032 94.0087C100.142 94.4098 101.107 94.7473 102.092 95.019C102.58 95.1478 103.075 95.2292 103.556 95.3377L104.288 95.4868C104.526 95.5343 104.776 95.5478 105.021 95.575L106.472 95.7309C106.953 95.7309 107.434 95.7309 107.916 95.7309C108.854 95.7397 109.792 95.683 110.723 95.5614C114.925 94.9767 118.88 93.2262 122.139 90.5082C125.397 87.7902 127.829 84.2136 129.158 80.184C129.421 79.435 129.634 78.6694 129.795 77.8923C129.877 77.56 129.965 77.2482 130.019 76.9634C130.073 76.6786 130.1 76.4142 130.141 76.1769C130.169 75.6865 130.274 75.2037 130.453 74.7463C130.546 75.2313 130.559 75.7281 130.494 76.2176C130.494 76.4617 130.494 76.7329 130.453 77.0244C130.412 77.316 130.365 77.6414 130.311 77.994C130.209 78.8014 130.044 79.5994 129.816 80.3806C129.235 82.5434 128.32 84.6023 127.104 86.4827C125.314 89.288 122.943 91.6765 120.151 93.4872C117.359 95.2978 114.211 96.4883 110.919 96.9785C109.929 97.1244 108.93 97.2015 107.929 97.209C107.421 97.209 106.905 97.209 106.39 97.209L104.838 97.0666C104.573 97.0666 104.309 97.0327 104.051 96.9852L103.265 96.8361C102.742 96.7276 102.214 96.6462 101.692 96.5174C100.631 96.2334 99.589 95.8824 98.5726 95.4665C97.5318 95.0625 96.5193 94.5891 95.5419 94.0494C95.0537 93.7579 94.5859 93.4257 94.1045 93.107C93.6297 92.792 93.1767 92.4455 92.7485 92.0696C91.8336 91.327 90.9684 90.5253 90.1584 89.6694C89.3615 88.7743 88.6275 87.8251 87.9617 86.8285C86.5735 84.7852 85.5269 82.5295 84.8631 80.1501C83.4485 75.238 83.6867 69.9972 85.5411 65.2337C86.4206 62.9263 87.671 60.7781 89.2431 58.8739C89.9992 57.9432 90.8193 57.0664 91.6975 56.25C92.5797 55.4721 93.513 54.754 94.491 54.1006C94.9624 53.7645 95.4562 53.4609 95.9691 53.1921C96.4776 52.9209 96.9725 52.6361 97.4878 52.392C98.5083 51.9217 99.5593 51.5208 100.634 51.1919C101.683 50.8699 102.752 50.6185 103.834 50.4393C104.363 50.358 104.905 50.3241 105.434 50.2631L106.227 50.1885C106.492 50.1885 106.756 50.1885 107.014 50.1885H108.58C109.095 50.1885 109.604 50.2834 110.113 50.3309C111.109 50.4297 112.097 50.5997 113.069 50.8394C116.299 51.6343 119.321 53.1118 121.933 55.1725C124.545 57.2331 126.684 59.8292 128.209 62.786C129.249 64.7808 129.967 66.9271 130.338 69.1458C130.493 69.9465 130.586 70.7581 130.616 71.5732C130.616 71.9257 130.663 72.2512 130.67 72.5495C130.677 72.8478 130.67 73.1122 130.629 73.3563C130.637 73.8343 130.569 74.3104 130.426 74.7666Z" fill="#263238"/>
<path d="M114.527 77.614C114.504 78.8246 114.009 79.9784 113.148 80.8295C112.287 81.6806 111.127 82.1617 109.916 82.1703C109.324 82.2004 108.732 82.1115 108.175 81.909C107.617 81.7066 107.106 81.3945 106.671 80.9914C106.237 80.5882 105.887 80.102 105.643 79.5616C105.399 79.0211 105.266 78.4373 105.251 77.8446C105.273 76.6346 105.766 75.4808 106.626 74.6295C107.486 73.7783 108.645 73.2969 109.855 73.2883C110.448 73.2573 111.041 73.3454 111.599 73.5475C112.157 73.7495 112.669 74.0614 113.104 74.4647C113.54 74.8679 113.89 75.3544 114.134 75.8953C114.379 76.4363 114.512 77.0207 114.527 77.614Z" fill="#263238"/>
<path d="M116.513 65.8849C115.923 66.468 112.445 63.7695 107.482 63.6339C102.519 63.4983 98.749 65.8985 98.2269 65.2679C97.9693 64.9899 98.5863 63.9119 100.213 62.7999C102.429 61.367 105.035 60.6564 107.672 60.7659C110.271 60.8305 112.782 61.7237 114.838 63.3152C116.316 64.5085 116.805 65.6205 116.513 65.8849Z" fill="#263238"/>
<path d="M94.7487 87.7985C94.6267 87.968 93.0876 87.1747 91.2637 85.0864C88.8931 82.3324 87.3957 78.9352 86.9623 75.3274C86.5288 71.7196 87.1788 68.0644 88.8296 64.8273C90.1111 62.3796 91.4196 61.2473 91.5756 61.3829C91.7315 61.5185 90.8976 62.922 89.9755 65.3358C88.7497 68.4406 88.3162 71.8018 88.7139 75.1161C89.1116 78.4304 90.3281 81.5935 92.2536 84.3203C93.7046 86.4628 94.925 87.5883 94.7487 87.7985Z" fill="white"/>
<path d="M100.749 91.6155C100.708 91.8528 100.485 92.0427 100.112 92.1105C99.6477 92.1607 99.1794 92.0648 98.7723 91.8364C98.3652 91.6079 98.0394 91.2581 97.8404 90.8358C97.7686 90.7098 97.7391 90.5642 97.7562 90.4202C97.7733 90.2762 97.8361 90.1414 97.9354 90.0357C98.3218 89.7306 98.9998 89.9544 99.6372 90.2934C100.275 90.6324 100.803 91.1274 100.749 91.6155Z" fill="white"/>
<path d="M61.6413 134.575C61.6413 134.575 71.5336 112.485 72.8896 111.38C74.2457 110.274 88.1315 100.355 88.1315 100.355C88.1315 100.355 90.6198 100.077 92.2674 101.033C93.5692 101.813 96.6474 106.681 97.8678 108.674C98.0326 108.941 98.139 109.24 98.1799 109.551C98.2209 109.861 98.1953 110.177 98.1051 110.478L96.4914 114.871C96.4914 114.871 98.1729 117.522 97.6915 119.367C97.3493 120.571 96.8209 121.715 96.1253 122.757C96.1253 122.757 97.6034 125.469 96.5728 128.005C95.5422 130.54 92.7284 131.605 92.7284 131.605C92.7284 131.605 91.5487 136.175 91.3724 137.076C91.1961 137.978 86.1652 139.836 85.6499 139.68C85.1346 139.524 81.5818 137.924 81.5818 137.924C81.5818 137.924 79.6698 145.382 77.5137 146.989C76.0496 147.992 74.3662 148.629 72.6049 148.847L71.1065 159.607L53.8916 148.684L61.6413 134.575Z" fill="#A26760"/>
<path d="M84.0698 128.764C85.5472 129.163 86.9967 129.659 88.4091 130.249C90.7754 131.137 92.7078 131.815 92.6806 131.903C91.1707 131.605 89.6959 131.151 88.2803 130.547C86.8282 130.075 85.4195 129.478 84.0698 128.764Z" fill="#7B4B45"/>
<path d="M84.5039 119.414C85.1104 119.45 85.7109 119.555 86.2939 119.726C87.3923 119.97 88.8975 120.356 90.5383 120.858C92.1791 121.36 93.6436 121.868 94.6945 122.275C95.2743 122.461 95.8332 122.707 96.3624 123.008C95.7649 122.895 95.1792 122.727 94.6131 122.506C93.5419 122.167 92.0706 121.692 90.4366 121.197C88.8025 120.702 87.3109 120.275 86.2329 119.97C85.6416 119.835 85.0631 119.649 84.5039 119.414Z" fill="#7B4B45"/>
<path d="M82.9922 112.024C83.6583 111.963 84.3292 111.976 84.9923 112.065C86.5883 112.197 88.1738 112.435 89.7385 112.776C91.3138 113.115 92.8653 113.557 94.3829 114.099C95.0227 114.295 95.6389 114.561 96.2203 114.892C95.5717 114.748 94.9331 114.562 94.3083 114.336C93.1285 113.977 91.5013 113.515 89.6639 113.115C87.8264 112.715 86.1585 112.437 84.9178 112.309C84.2701 112.259 83.6266 112.163 82.9922 112.024Z" fill="#7B4B45"/>
<path d="M93.0335 113.631C92.6331 112.571 92.5323 111.421 92.7419 110.308C92.205 110.339 91.6676 110.256 91.1651 110.064C90.6626 109.873 90.2064 109.577 89.8264 109.196C88.9518 110.152 87.7924 111.474 86.8906 112.43L93.0335 113.631Z" fill="#455A64"/>
<path d="M224.725 190.639L261.656 177.676L285.17 199.779C301.659 222.079 282.811 241.267 265.047 238.318C251.947 236.141 216.5 222.079 216.5 222.079L224.725 190.639Z" fill="#E0E0E0"/>
<path d="M216.48 222.08C216.48 222.08 216.48 222.025 216.48 221.931L216.582 221.49C216.677 221.083 216.819 220.514 216.995 219.795C217.375 218.296 217.924 216.154 218.602 213.482L224.216 191.908L224.25 191.759H224.406L233.898 193.298L262.375 197.99L270.993 199.454L273.332 199.868L273.935 199.983C274.005 199.991 274.074 200.009 274.139 200.037H273.928L273.318 199.949L270.965 199.603L262.334 198.247L233.858 193.657L224.365 192.105L224.562 191.976C222.263 200.614 220.263 208.126 218.833 213.516C218.107 216.174 217.531 218.31 217.124 219.802L216.649 221.483C216.602 221.659 216.555 221.802 216.521 221.917C216.518 221.973 216.505 222.029 216.48 222.08Z" fill="#263238"/>
<path d="M269.114 194.396C269.114 194.491 265.826 195.156 261.731 195.881C257.635 196.607 254.272 197.108 254.272 197.013C254.272 196.918 257.588 196.227 261.656 195.501C265.724 194.776 269.114 194.274 269.114 194.396Z" fill="#263238"/>
<path d="M143.302 282.592H41.538C40.3761 282.593 39.2509 282.186 38.3578 281.443C37.4648 280.699 36.8603 279.667 36.6495 278.524L24.0519 208.946C23.9231 208.231 23.9526 207.496 24.1383 206.794C24.324 206.092 24.6615 205.439 25.1269 204.881C25.5923 204.323 26.1744 203.874 26.8321 203.565C27.4898 203.257 28.2072 203.096 28.9337 203.095H130.704C131.865 203.095 132.989 203.502 133.881 204.245C134.773 204.988 135.376 206.021 135.586 207.163L148.19 276.734C148.321 277.45 148.294 278.187 148.108 278.891C147.923 279.595 147.586 280.25 147.119 280.809C146.652 281.368 146.069 281.818 145.409 282.126C144.749 282.434 144.03 282.593 143.302 282.592Z" fill="#263238"/>
<path d="M138.095 275.947H197.082C198.774 275.947 200.397 276.619 201.594 277.816C202.79 279.012 203.462 280.635 203.462 282.327V282.592H138.095V275.947Z" fill="#263238"/>
<path d="M129.633 203.095C129.728 203.095 133.342 220.852 137.702 242.799C142.061 264.747 145.526 282.552 145.424 282.572C145.323 282.592 141.716 264.815 137.356 242.867C132.996 220.92 129.538 203.115 129.633 203.095Z" fill="#455A64"/>
<path d="M82.7414 243.973C82.554 243.285 82.1641 242.67 81.6224 242.207C81.0807 241.744 80.4123 241.454 79.7039 241.376H80.0022C79.2615 241.228 78.4929 241.325 77.8118 241.651C77.1307 241.978 76.5737 242.516 76.2244 243.186C75.8752 243.855 75.7524 244.62 75.8746 245.365C75.9968 246.111 76.3574 246.796 76.9022 247.319C77.4471 247.842 78.1468 248.175 78.8965 248.266C79.6461 248.358 80.4053 248.204 81.0602 247.828C81.715 247.452 82.2302 246.873 82.5284 246.179C82.8267 245.485 82.8919 244.713 82.7143 243.979L82.7414 243.973Z" fill="#455A64"/>
</svg>
